<?xml version="1.0" encoding="utf-8"?>
<!-- Generator: Adobe Illustrator 27.8.0, SVG Export Plug-In . SVG Version: 6.00 Build 0)  -->
<svg version="1.1" id="Layer_1" xmlns="http://www.w3.org/2000/svg" xmlns:xlink="http://www.w3.org/1999/xlink" x="0px" y="0px"
	 viewBox="0 0 841.9 162.2" style="enable-background:new 0 0 841.9 162.2;" xml:space="preserve">
<style type="text/css">
	.st0{fill:#FFFFFF;}
</style>
<g>
	<g>
		<path class="st0" d="M67.5,15H116l50.3,134.6h-45.8l-5.9-18.7H67.7l-5.9,18.7H16.1L67.5,15z M91.6,53.3l-14.7,47.5h29L91.6,53.3z"
			/>
		<path class="st0" d="M171.8,15h79.7c2,0.1,4.5,0.3,7.4,0.5c2.9,0.2,5.9,0.6,9.1,1.3c3.1,0.7,6.2,1.8,9.2,3.2
			c3,1.5,5.8,3.4,8.4,5.8c3.1,2.9,5.3,6.5,6.9,10.6c1.5,4.1,2.3,8.4,2.3,12.7c0,5-0.9,9.5-2.8,13.5c-1.8,4.1-4.1,7.4-6.8,10.1
			c-1.8,1.8-3.6,3.2-5.4,4.2c-1.8,1-3.8,2-6,3c2.8,0.8,5.5,1.7,8,2.7c2.5,1,5.1,2.9,7.8,5.5c3.8,3.7,6.3,7.6,7.3,11.7
			c1.1,4.1,1.6,7.8,1.6,11.2c0,5.1-0.8,10.1-2.4,15c-1.6,4.9-4.1,9.1-7.5,12.5c-2.5,2.5-5.3,4.5-8.2,6c-2.9,1.5-5.9,2.5-9,3.2
			c-3.1,0.7-6,1.1-9,1.3c-2.9,0.2-5.7,0.4-8.4,0.5h-82.4V15z M214.1,94.5v26.1h26.7c1.9-0.1,3.8-0.4,5.7-0.8
			c1.9-0.4,3.7-1.5,5.3-3.2c2.3-2.3,3.4-5.2,3.4-8.8c0-3.2-0.6-5.7-1.8-7.4c-1.2-1.8-2.7-3.1-4.4-3.9c-1.7-0.8-3.4-1.4-5.1-1.6
			c-1.7-0.3-3.1-0.4-4.1-0.4H214.1z M214.3,43.4v22.9h23.4c1,0,2.3-0.1,3.9-0.2c1.6-0.1,3.1-0.5,4.6-1.2c1.5-0.7,2.7-1.8,3.8-3.3
			c1.1-1.5,1.6-3.7,1.6-6.5c0-2.8-0.5-5-1.5-6.5c-1-1.5-2.2-2.7-3.5-3.4c-1.3-0.8-2.8-1.2-4.3-1.4c-1.5-0.2-2.7-0.3-3.6-0.3H214.3z"
			/>
		<path class="st0" d="M408.4,140c-1.5,1.1-3.4,2.5-5.7,4c-2.3,1.5-5.1,3-8.3,4.3c-3.2,1.3-7,2.4-11.3,3.3
			c-4.3,0.9-9.3,1.3-15.1,1.3c-5.1,0-9.7-0.4-13.9-1.3c-4.2-0.9-8-2-11.4-3.4c-3.2-1.3-7.1-3.4-11.7-6.5c-4.6-3-9.1-7.2-13.4-12.4
			c-4.3-5.2-8-11.6-11.1-19.2c-3-7.6-4.6-16.6-4.6-27.2c0-9.7,1.6-18.9,4.7-27.8c3.1-8.9,7.7-16.7,13.7-23.4
			c6-6.7,13.5-12.1,22.5-16.2c9-4.1,19.3-6.1,31-6.1c10.2,0,20.1,1.7,29.7,5.1c9.7,3.4,17.9,8.5,24.6,15.1c4.1,3.9,7,7.7,8.7,11.2
			c1.7,3.6,3.1,6.9,4.3,10.1l-38.1,10.7c-0.5-2.2-1.1-4.3-1.8-6.5c-0.7-2.2-2.1-4.3-4.3-6.5c-2-2-4.7-3.7-8.1-5.1
			c-3.4-1.3-7.3-2-11.7-2c-5.1,0-9.4,0.8-12.9,2.4c-3.5,1.6-6.3,3.4-8.5,5.4c-2.7,2.4-4.7,5.1-6.1,8.2c-1.4,3-2.4,6.1-3,9.1
			c-0.6,3-1,5.8-1.1,8.4c-0.1,2.6-0.2,4.7-0.2,6.2c0,2,0.1,4.3,0.2,6.9c0.1,2.5,0.5,5.2,1.2,7.9c0.7,2.7,1.7,5.5,3.1,8.2
			c1.3,2.7,3.2,5.3,5.6,7.7c2,2.2,4.2,3.8,6.4,5.1c2.2,1.2,4.4,2.1,6.5,2.7c2.1,0.6,4,0.9,5.7,1c1.7,0.1,3.1,0.2,4.3,0.2
			c0.9,0,2.2-0.1,3.8-0.2c1.6-0.1,3.4-0.4,5.2-0.9c1.8-0.4,3.7-1.1,5.7-2.1c2-1,3.8-2.3,5.4-4.1c1.8-1.9,3-3.8,3.5-5.6
			c0.6-1.8,1.1-3.8,1.6-6h-25V75h61.8v74.3h-31.8V140z"/>
		<path class="st0" d="M443.8,14.8h110.9v33.4h-34.1v101.4H478V48.1h-34.1V14.8z"/>
	</g>
	<g>
		<path class="st0" d="M586.3,75.2c7-7.4,14.9-11.1,23.8-11.1c9,0,16.4,3.4,22.5,10.2c6,6.8,9,15.9,9,27.2c0,9.2-2.2,17.8-6.6,26
			c-4.4,8.2-10.2,14.4-17.3,18.6c-7.2,4.2-14.1,6.4-20.8,6.4c-5.9,0-11.5-1.7-16.7-5.1c-5.2-3.4-9.3-8.4-12.1-15
			c-2.9-6.6-4.3-14.5-4.3-23.6c0-9.8,1.7-19.6,5.1-29.6c3.4-10,7.4-18.9,11.9-26.8c4.6-7.9,10.4-15,17.6-21.2
			c7.2-6.2,13.6-10.6,19.4-13.1c5.8-2.5,11.8-3.8,18.1-3.8c8.4,0,14.7,1.8,19.1,5.3c4.4,3.5,6.6,6.8,6.6,9.7c0,1.5-0.6,2.9-1.7,4.2
			c-1.1,1.3-2.6,1.9-4.5,1.9c-3,0-5.5-2-7.6-5.9c-3.8-7.3-8.5-10.9-14-10.9c-9.6,0-19,6.6-28.1,19.6
			C596.2,51.4,589.9,63.7,586.3,75.2z M574.4,123c0,8,2.1,14.2,6.3,18.5c4.2,4.3,9.1,6.5,14.6,6.5c10.2,0,18.4-7.2,24.5-21.7
			c6.1-14.5,9.2-27.2,9.2-38c0-6.5-1.8-11.5-5.4-14.7c-3.6-3.3-8.2-4.9-13.8-4.9c-10.9,0-19.5,5.9-25.9,17.7
			C577.6,98.2,574.4,110.4,574.4,123z"/>
		<path class="st0" d="M653.6,112.4c0-14.2,3-29.4,8.9-45.7c5.9-16.3,13.8-29.1,23.8-38.4c9.9-9.3,19.1-13.9,27.6-13.9
			c6.9,0,12.6,3.7,16.9,11.1c4.3,7.4,6.5,16.7,6.5,27.9c0,14.1-2.8,29.2-8.3,45.2s-13.5,29-24.1,39c-10.5,10-19.6,14.9-27.2,14.9
			c-7.4,0-13.2-3.8-17.5-11.5C655.8,133.3,653.6,123.7,653.6,112.4z M665.1,128.2c0,6.8,1,11.9,3,15.3c2,3.4,5,5.1,8.9,5.1
			c10,0,20.6-13.1,31.8-39.3c11.2-26.2,16.8-50.2,16.8-71.8c0-6.4-1-11.2-2.9-14.4c-1.9-3.2-4.8-4.8-8.7-4.8
			c-11,0-21.9,13.5-32.7,40.4C670.6,85.5,665.1,108.7,665.1,128.2z"/>
		<path class="st0" d="M741.4,112.4c0-14.2,3-29.4,8.9-45.7c5.9-16.3,13.8-29.1,23.8-38.4c9.9-9.3,19.1-13.9,27.6-13.9
			c6.9,0,12.6,3.7,16.9,11.1s6.5,16.7,6.5,27.9c0,14.1-2.8,29.2-8.3,45.2c-5.5,16-13.5,29-24.1,39c-10.5,10-19.6,14.9-27.2,14.9
			c-7.4,0-13.2-3.8-17.5-11.5C743.6,133.3,741.4,123.7,741.4,112.4z M752.9,128.2c0,6.8,1,11.9,3,15.3c2,3.4,5,5.1,8.9,5.1
			c10,0,20.6-13.1,31.8-39.3c11.2-26.2,16.8-50.2,16.8-71.8c0-6.4-1-11.2-2.9-14.4c-1.9-3.2-4.8-4.8-8.7-4.8
			c-11,0-21.9,13.5-32.7,40.4C758.3,85.5,752.9,108.7,752.9,128.2z"/>
	</g>
</g>
</svg>
